<?xml version="1.0" encoding="UTF-8"?>
<svg id="Calque_1" data-name="Calque 1" xmlns="http://www.w3.org/2000/svg" viewBox="0 0 1000 1000">
  <defs>
    <style>
      .cls-1 {
        fill: #0f97de;
      }

      .cls-1, .cls-2, .cls-3 {
        stroke: #f2f2f2;
        stroke-miterlimit: 10;
        stroke-width: 9.43px;
      }

      .cls-2 {
        fill: #142b4c;
      }

      .cls-3 {
        fill: #6dcdf7;
      }
    </style>
  </defs>
  <g>
    <path class="cls-1" d="M320.6,461.29c.3,29.91,2.3,55.04,4.09,72.39,2.33,22.69,5.51,43.89,9.15,63.45-9.66-3.91-19.66-7.61-30.12-10.99-73.21-23.96-142.32-26.74-199.12-21.91,8.27-27.27,19.06-56.07,33.23-85.86,21.58-45.54,47.2-85.26,74.14-119.55,38.9-5.88,77.79-11.75,116.69-17.63-6.88,47.93-8.37,88.82-8.06,120.1Z"/>
    <path class="cls-3" d="M333.84,308.93c-30.72,4.89-61.43,9.78-92.15,14.66,39.39-43.56,79.63-76.52,113.06-100.62-4.44,14.67-8.7,30.26-12.62,46.74-3.22,13.53-5.96,26.62-8.3,39.22Z"/>
    <path class="cls-3" d="M584.41,160.22c-15.02-4.56-37.75-9.36-65.23-7.27-15.03,1.14-27.99,4.08-38.4,7.27,21.71-17.16,48.02-35.57,79.29-52.69,24.21-13.25,44.74-22.32,57.22-27.57-11.24,21.67-23.34,48.75-32.88,80.27Z"/>
    <path class="cls-1" d="M570.35,414.55c4.85,58.67,13.81,100.19,16.6,112.41,11.62,50.8,26.94,92.63,40.27,123.79-22.89-14.97-61.03-35.88-112.41-46.71-58.71-12.38-107.69-5.89-135.76,0-17.7-47.65-22.03-88.26-22.86-114.99-2.03-65.23,14.62-116.1,26.23-151.62,18.14-55.47,43.56-102.61,71.43-141.99,12.74-5.03,32.24-10.97,56.59-11.83,30.6-1.09,54.8,6.33,68.79,11.83-14.81,93.82-12.98,169.44-8.87,219.11Z"/>
    <path class="cls-1" d="M673.2,638.34c-14.7-28.26-73.62-149.3-28.04-285.94,18.92-56.72,49.62-97.47,73.03-123,13.1,59.02,36.78,136.15,81.57,219.09,31.15,57.67,65.1,104.44,95.67,140.94-35.72,4.79-74.21,11.4-114.93,20.45-38.6,8.58-74.42,18.3-107.3,28.47Z"/>
  </g>
  <path class="cls-2" d="M46.87,624.99c10.31,20.33,20.62,60.46,30.93,80.78,26.43-2.59,65.66-4.48,112.6.92,37.06,4.26,66.95,11.68,133.22,31.2,120.07,35.37,108.63,36.89,143.5,44.42,138.63,29.92,256.68-.43,296.39-11.1,55.39-14.89,99.63-54.34,130.69-70.3,19.65-29.29,39.29-58.58,58.94-87.87-157.73,76.81-277.99,100.66-357.89,90.69-111.2-13.87-172.08-78.18-318.38-90.69-97.86-8.37-178.77,2.29-229.99,11.96Z"/>
  <path class="cls-2" d="M111.36,771.26c27.34,29.54,156.26,162.5,359.17,169.5,203.66,7.02,365.52-116.86,359.17-134.47-4.52-12.53-89.46,41.72-229.19,33.15-159.44-9.78-229.13-91.48-401.88-80.87-38.31,2.35-69.02,8.47-87.28,12.7Z"/>
</svg>