<?xml version="1.0" encoding="UTF-8"?>
<svg id="Calque_2" xmlns="http://www.w3.org/2000/svg" version="1.1" viewBox="0 0 869.18 1000">
  <!-- Generator: Adobe Illustrator 30.6.0, SVG Export Plug-In . SVG Version: 2.1.4 Build 109)  -->
  <defs>
    <style>
      .st0 {
        fill: #fff;
      }

      .st1 {
        fill: #e2101a;
      }

      .st2 {
        fill: #0057bf;
      }

      .st3 {
        fill: #d97624;
      }

      .st4 {
        fill: #e4b632;
      }
    </style>
  </defs>
  <g id="Capa_1">
    <g>
      <path id="path5" d="M409.25,25.59h19.39V0h17.45v25.59h19.39v17.45h-19.39v12.69c6.21,2.17,11.36,6.58,14.48,12.27,3.75-3.19,8.6-5.12,13.9-5.12,11.85,0,21.45,9.61,21.45,21.45,0,.49-.02.98-.05,1.46,3.3-2.07,7.2-3.27,11.38-3.27,6.79,0,12.85,3.16,16.78,8.09,1.53-10.34,10.45-18.28,21.22-18.28,11.85,0,21.45,9.61,21.45,21.45,0,2.48-.42,4.87-1.2,7.08,3.92-4.24,9.53-6.9,15.76-6.9,11.28,0,20.53,8.71,21.39,19.78,1.72-.45,3.53-.68,5.39-.68,11.85,0,21.45,9.61,21.45,21.45,0,2.18-.33,4.29-.93,6.27,8.77,2.7,15.14,10.86,15.14,20.51,0,3.38-.78,6.58-2.18,9.43,5.54,3.88,9.17,10.31,9.17,17.58,0,4.97-1.69,9.54-4.53,13.18,4.35,3.93,7.09,9.61,7.09,15.93,0,8.31-4.73,15.52-11.64,19.08,1.02,2.45,1.29,5.52.8,9.01-.94,6.65-5.16,12.7-13.46,14.7-9.24,2.24-18.76,3.52-28.27,3.39,1.02,12.69-8.69,26.5-21.28,26.76l11.54,19.65-20.18,4.56c6.89,5.71,8.21,16.81,5.2,24.91-1.48,3.98-4.01,7.25-7.11,9.93,88.1,47.06,148.07,139.9,148.07,246.74,0,17.42-1.6,34.47-4.65,51,2.02,1.26,4.02,2.53,5.98,3.82,22.84,14.99,43.34,33.23,61.68,53.43v.02c7.31,8.1,14.86,16.33,22.78,24.78,7.74,8.25,15.59,16.42,23.6,24.48,13.97,14.06,28.1,27.83,42.87,41.06-47.33,12.33-88.74,32.61-128.8,56.75l109.05,110.59-40.59,26.68-109.48-111.17c-7.37,4.89-14.75,9.86-22.16,14.9-26.68,18.11-53.52,36.33-82.05,52.78-45.63,26.3-90.36,44.47-132.1,51.54-36.65,6.2-74.01,4.11-108.05-11.88-31.85-34.48-64.19-67.12-104.7-91.61-32.54-6.17-60.62-39.19-76.56-65.41l-.15-.28c-5.36-10.71-12.52-21.75-21.43-33.09-21.07-26.83-46.22-51.58-74.97-70.1-18.73-12.07-28.5-21.3-36.06-42.69-5.49-15.55-12.67-30.44-18.34-45.96-4.15-11.36-7.79-22.51-10.39-32.27-8.75-32.76-4.71-66.21,2.22-99.03,2.76-13.06,5.56-26.36,7.04-40.64,1.53-14.81.48-29.87-4.01-44.11-23.32-75.56-4.75-161.27,13.87-237.24-27.67,5.26-41.71-30.44-22.97-50.48l14.26-15.26c26.29-28.12,65.3,4.43,46.26,33.97l204.09,219.18c10.39-7.55,21.31-14.42,32.71-20.5-3.1-2.68-5.63-5.95-7.11-9.93-3.01-8.1-1.69-19.2,5.2-24.91l-20.18-4.56,11.54-19.65c-12.59-.26-22.3-14.07-21.28-26.76-9.52.13-19.04-1.14-28.28-3.39-8.29-2-12.52-8.05-13.46-14.7-.49-3.49-.22-6.56.8-9.01-6.91-3.56-11.64-10.77-11.64-19.08,0-6.32,2.74-12,7.09-15.93-2.84-3.64-4.53-8.21-4.53-13.18,0-7.27,3.63-13.7,9.17-17.58-1.4-2.85-2.18-6.04-2.18-9.43,0-9.65,6.37-17.81,15.14-20.51-.61-1.98-.93-4.09-.93-6.27,0-11.85,9.61-21.45,21.45-21.45,1.86,0,3.67.24,5.39.68.85-11.06,10.1-19.78,21.39-19.78,6.23,0,11.84,2.66,15.76,6.9-.78-2.22-1.2-4.6-1.2-7.08,0-11.85,9.61-21.45,21.45-21.45,10.77,0,19.69,7.94,21.22,18.28,3.93-4.93,9.99-8.09,16.78-8.09,4.18,0,8.08,1.2,11.38,3.27-.03-.48-.05-.97-.05-1.46,0-11.85,9.61-21.45,21.45-21.45,5.31,0,10.16,1.93,13.91,5.12,3.12-5.69,8.27-10.1,14.48-12.27v-12.69h-19.39v-17.44h.01,0ZM193.97,458.53c11.95-21.09,26.57-40.47,43.4-57.69L41.28,190.58c9.84,38.18,23.56,73.4,42.3,109.14,29.98,57.18,68.74,109.59,110.38,158.81h0Z"/>
      <path id="path7" class="st2" d="M99.95,678.52c-33.4-37.7-23.92-98.18-16.22-147.33,1.14-7.25,2.24-14.25,3.16-20.94h0c1.85-22.13,2.12-45.62.05-68.54-1.83-20.21-5.48-39.98-11.48-57.99l-.03-.12c-1.66-11.78-2.3-24.35-2.13-36.95.19-13.86,1.35-27.76,3.17-40.7l.18-1.3-.54-1.03c-15.78-30.09-32.38-63.54-41.02-96.64-15.04,67.47-29.36,142.47-9.38,210.2,4.84,15.35,5.99,31.52,4.34,47.48-1.53,14.75-4.38,28.25-7.17,41.5-5.2,24.65-8.8,45.63-5.29,66.87,4.82,29.21,23.49,55.51,44.45,75.6,11.8,11.54,24.47,21.57,37.91,29.89h0Z"/>
      <path id="path9" class="st4" d="M571.69,288.8c-.18-.08-.36-.16-.54-.24-20.3-9.19-41.78-16.12-64.09-20.75-45.24-9.39-94.15-9.39-139.39,0-22.31,4.63-43.79,11.56-64.09,20.75-.18.08-.36.16-.54.24l21.33,2.64,1.61.2-1.02,1.26-14.71,18.19c19.26-8.6,39.5-15.31,60.49-19.88,43.72-9.52,89.54-9.48,133.26.03,20.71,4.51,41,11.14,60.49,19.85l-14.71-18.19-1.02-1.26,1.61-.2,21.32-2.64h0Z"/>
      <path id="path11" class="st0" d="M148.9,700.01c-6.65-11.07-12.01-23.48-16.41-36.24-4.68-13.58-8.28-27.58-11.19-40.77h0c-6.34-27.73-3.92-55.68-1.49-83.81,1.45-16.74,2.9-33.55,2.51-50.36-.74-7.15-1.66-14.39-2.59-21.68-3.84-30.15-7.81-61.38.24-90.07-15.27-22.82-29.46-46.32-42.26-70.46-1.63,12.25-2.9,27.13-3.08,40.03-.17,12.52.46,25,2.11,36.7,6.02,18.1,9.69,37.95,11.52,58.23,2.08,23.02,1.81,46.58-.04,68.77v.03c-.92,6.65-2.03,13.7-3.17,21-7.9,50.37-17.67,112.72,19.1,149.65,11.29,6.6,23.11,12.01,35.39,16.1,3.09,1.04,6.22,2,9.36,2.87h0Z"/>
      <path id="path13" class="st2" d="M180.08,705.63c-14.34-33.64-22.28-70.65-22.28-109.52,0-46.19,11.22-89.76,31.06-128.15-24.1-28.43-47.01-58.28-67.93-89.42-7.57,28.13-3.66,58.82.11,88.45.93,7.34,1.86,14.61,2.6,21.73v.05c.39,16.93-1.06,33.77-2.51,50.53-2.42,28.03-4.83,55.89,1.46,83.4h0c2.9,13.13,6.48,27.08,11.16,40.63,4.53,13.15,10.08,25.91,17.01,37.18,9.53,2.52,19.31,4.24,29.33,5.11h0Z"/>
      <path id="path15" class="st2" d="M393.75,949.57c-2.7,12.21-6.62,24.38-11.72,36.41,24.56,6.76,51.34,7.25,79.62,2.47,40.72-6.89,84.52-24.7,129.29-50.51,28.26-16.29,54.97-34.43,81.52-52.45,56.03-38.03,110.92-75.43,179.14-94.8-7.87-7.27-15.44-14.99-22.98-22.68-87.44,1.8-156.56,50.4-225.24,98.7-7,4.92-14,9.84-21.09,14.77l-.03.02c-28.86,17.39-58.41,34.4-89.57,47.07-31.07,12.63-63.74,20.94-98.93,21.01h0Z"/>
      <path id="path17" class="st0" d="M398.2,908.68c.07,13.16-1.34,26.39-4.16,39.56,34.9-.11,67.31-8.37,98.14-20.9,31.08-12.63,60.57-29.61,89.38-46.97,6.97-4.84,14.01-9.79,21.05-14.74,68.52-48.18,137.48-96.66,224.74-98.9-2.34-2.39-4.68-4.77-7.03-7.13-7.5-7.55-14.8-15.13-21.95-22.72-24.79,1.84-47.74,7.4-69.73,15.35-22.38,8.09-43.78,18.65-65.11,30.28-41.71,26.4-84.07,52.9-128.16,75.34-43.67,22.24-89.05,40.51-137.18,50.84h0Z"/>
      <path id="path19" class="st2" d="M387.26,848.7c6.03,16.25,9.53,32.9,10.6,49.72.19,2.97.3,5.94.33,8.91,47.9-10.31,93.09-28.52,136.59-50.67,44.07-22.44,86.39-48.91,128.06-75.29l.04-.02c21.39-11.66,42.85-22.26,65.31-30.38,21.78-7.87,44.5-13.42,69.02-15.35l-.64-.69c-7.53-8.03-15.17-16.37-22.88-24.9h0c-3.87-4.26-7.85-8.43-11.92-12.51-96.55,3.56-177.49,53.04-256.31,101.23l-1.79,1.09-.04.02-1.46.75c-37.15,19.1-74.01,38.06-114.91,48.08h0Z"/>
      <path id="path21" class="st0" d="M373.52,819.74c5.28,9.07,9.7,18.32,13.27,27.71,40.8-9.97,77.65-28.92,114.77-48.01l1.44-.74,1.77-1.08c78.62-48.07,159.36-97.43,255.72-101.37-7.34-7.27-15.01-14.21-23.01-20.74-25.3-4.41-50.6-3.58-74.93.88-28.11,5.16-54.94,15.18-79.01,27.59h-.03c-30.67,13.67-59.36,32.61-88.09,51.58-38.87,25.67-77.8,51.38-121.88,64.16h0Z"/>
      <path id="path23" class="st2" d="M328.14,767.09c15.61,12.3,29.58,27.57,41.26,45.88,1.18,1.85,2.33,3.72,3.43,5.59,44.02-12.69,82.96-38.41,121.84-64.08,28.76-18.99,57.48-37.96,88.25-51.66h0c24.17-12.46,51.13-22.53,79.38-27.71,23.73-4.36,48.38-5.27,73.07-1.28-7-5.6-14.24-10.9-21.75-15.82-6.38-4.19-12.74-7.98-19.01-11.71-6.8-4.05-13.51-8.05-19.86-12.29-3.59-2.4-7.11-4.83-10.55-7.31-96.21-8.81-172.36,42.14-246.36,91.67-10.25,6.86-20.46,13.69-30.67,20.33l-.04.02c-19,10.67-38.33,21.22-58.99,28.37h0Z"/>
      <path id="path25" class="st0" d="M292.45,745.28c2.68,1.23,5.34,2.53,7.96,3.9,9.22,4.8,18.08,10.44,26.48,16.94,20.89-7.12,40.41-17.78,59.59-28.55,10.2-6.63,20.39-13.45,30.62-20.3,73.63-49.27,149.37-99.96,245-92.08-5.09-3.71-10.05-7.52-14.95-11.48-4.71-3.81-9.41-7.79-14.14-12-20.35-.5-41.38,1-61.95,4.07-22.56,3.37-44.57,8.64-64.54,15.24h-.04c-37.73,9.88-70.27,32.77-102.86,55.67-17.7,12.45-35.42,24.9-54,35.3h0c-18.43,12.14-38.87,20.94-57.16,33.29h0Z"/>
      <path id="path27" class="st2" d="M56.18,654.72c-12.09-11.59-22.98-25.04-31.47-39.36,1.81,5.68,3.84,11.57,6.01,17.51,5.68,15.54,12.87,30.45,18.37,46.02,6.91,19.57,15.48,27.32,32.66,38.39,15.25,9.83,28.91,21.1,42.04,33.66,13.37-6.65,26.95-11.72,40.91-15.57,14.18-3.91,28.52-6.24,42.79-6.72,28.87-.98,57.45,4.29,83.55,15.99,18.47-12.62,39.22-21.48,57.89-33.78l.04-.03c18.53-10.37,36.21-22.8,53.88-35.23,32.67-22.97,65.3-45.91,103.25-55.85h0c20.03-6.62,42.12-11.91,64.76-15.29,20.11-3,40.67-4.51,60.62-4.12-3.67-3.28-7.36-6.69-11.12-10.25-6.43-6.11-12.67-12.41-18.68-18.95-5.61-6.11-11.01-12.43-16.16-18.96-42.81-.44-84.71,10.93-123.02,29.6-30.49,14.87-59.04,33.44-85.5,54.64-28.01,22.43-54.18,42.59-87.57,57.16-19.63,8.57-40.42,14.96-62.63,18.56-31.93,5.18-62.02,2.41-89.95-7.01-30.22-9.57-57.45-26.79-80.68-50.43h0Z"/>
      <path id="path29" class="st0" d="M360.1,977.96c4.51,2.09,9.12,3.92,13.81,5.52,11.95-27.87,17.29-56.46,15.52-84.54-1.78-28.03-10.65-55.59-27.14-81.45-17.38-27.26-40.12-47.46-65.77-60.82-27.27-14.2-57.84-20.65-88.76-19.6-13.57.46-27.25,2.68-40.81,6.42-12.44,3.43-24.6,7.86-36.68,13.68,11,10.81,20.39,21.72,28.54,32.09,9.15,11.65,16.58,23.11,22.22,34.34,15.08,23.9,41.83,54.91,72.26,61.58,41.19,24.5,75.44,57.48,106.82,92.77h0Z"/>
      <polygon id="polygon31" class="st4" points="729.24 857.82 829.59 959.95 810.58 972.45 710.25 870.58 729.24 857.82"/>
      <path id="path33" class="st4" d="M52.2,151.15l210.83,226.42c-5.73,4.58-11.27,9.38-16.63,14.39L36.54,166.93c-6.16,4.12-13.58,4.99-19.39-.81h0c-7.4-7.4-6.48-17.87.67-25.52l14.26-15.26c7.15-7.65,17.92-9.68,25.32-2.28h0c7.4,7.4,4.91,17.28-2.24,24.93l-2.96,3.17h0Z"/>
      <path id="path35" class="st4" d="M555.99,342.92c3.44-1.82,6.79-4.34,8.12-7.9,1.03-2.77,1.38-9.58-2.03-11.15-19.45-8.92-39.84-15.7-60.76-20.25-42.04-9.15-85.87-9.18-127.9-.03-21.22,4.62-41.56,11.47-60.77,20.28-3.41,1.57-3.06,8.37-2.03,11.15,1.32,3.56,4.68,6.08,8.12,7.9,36.02-16.91,76.22-26.38,118.63-26.38s82.62,9.46,118.63,26.38Z"/>
      <path id="path37" d="M395.15,272.03c1.82,3.33.09,7.06-2.69,9.16-1.81,1.37-3.97,2.04-6.23,2.54l-26.99,5.96c-2.76.61-5.68.87-8.51-.42-4.59-2.1-5.7-7-2.42-10.85,1.96-2.3,4.66-3.39,7.51-3.94l27.32-6.05c4.16-.92,9.69-.66,12.01,3.59h0Z"/>
      <path id="path39" class="st1" d="M383.22,269.35l-27.25,6c-2.58.57-5.1,1.43-6.98,3.64-2.9,3.4-1.94,7.63,2.12,9.48,2.55,1.17,5.37,1,7.94.43l27.03-5.99c1.99-.42,3.97-1.06,5.62-2.25,2.5-1.79,4.3-5.05,2.75-8.09-2.09-4.07-7.43-4.07-11.23-3.23h0Z"/>
      <path id="path41" class="st2" d="M245.46,752.82c.23-.23.45-.43.68-.65,6.06,5.78,12.23,11.6,18.49,17.54,6.39,6.05,12.9,12.23,19.52,18.5-.31.37-.62.76-.94,1.13-10.38-8.84-19.73-14.98-27.09-18.26-7.36-3.25-12.86-3.76-15.46-1.2-4.04,3.93.72,13.66,8.62,21.7,2.66,2.71,4.98,4.69,7.51,6.51,3.28,2.16,6.89,3.87,10.88,5.22,3.08,1.19,8.44,2.03,16.45,3.28,5.75.88,11.03,2.09,15.78,3.54,4.76,1.47,9.08,3.26,12.9,5.37,7.57,4.49,15.99,10.8,25.1,19.55,11.55,11.06,21.37,23.41,27.76,34.69,6.65,11.71,9.69,22.29,7.08,28.86-1.7,4.27-4.51,6.28-12.61,6.07-2.26.41-3.5.94-3.92,1.9-.83,1.9,1.12,7.17,7.23,15.38-.27.69-.55,1.36-.81,2.04-10.22-10.61-20.22-21.05-29.93-31.15-9.47-9.88-18.73-19.54-27.75-28.89.32-.57.65-1.09.99-1.67,16.21,14.58,29.93,24.25,40.15,29.05,10.24,4.82,16.72,4.61,18.74-.16,2.95-6.99-5.98-22.09-17.19-33.04-7.1-6.93-13.62-11.05-20.81-13.88-3.98-1.63-8.55-2.27-14.96-3.16-9.25-1.28-16.31-2.91-22.56-5.25-6.24-2.37-11.59-5.39-17.47-9.35-5.38-3.87-11.64-9.14-17.27-15.02-9.62-10-16.8-20.4-20.5-29.05-3.58-8.39-3.96-15.19-.24-18.67,1.27-1.2,3.04-1.89,5.1-1.93,3.42-.38,11.33,1.6,12.35.59,1.02-.98.53-2.46-5.81-9.57h0Z"/>
      <path id="path43" class="st4" d="M437.36,93.15c6.86,0,12.46-5.6,12.46-12.46s-5.6-12.46-12.46-12.46-12.46,5.6-12.46,12.46,5.6,12.46,12.46,12.46h0Z"/>
      <path id="path45" class="st1" d="M262.11,227c2.09-1.28,4.56-1.99,6.97-2.04,3.17-.07,6.42.96,8.92,3.28.5.46.91.9,1.23,1.3.16.2.31.41.44.62.53.72.94,1.41,1.26,2.06,5.42-.8,10.51-2.51,15.22-4.99,4.91-2.59,9.41-6,13.41-10.1-2.84-2.33-4.99-5.54-5.99-9.35-1.06-4.03-.67-8.1.84-11.67,1.47-3.46,4.02-6.45,7.37-8.44.3-4.6,2.23-8.43,5.07-11.27,2.34-2.34,5.27-3.98,8.38-4.8.14-.04.28-.07.43-.11-1.85-2.95-2.93-6.44-2.93-10.19,0-8.39,5.39-15.52,12.89-18.12-1.62-3.01-2.53-6.46-2.53-10.12,0-9.51,6.19-17.57,14.76-20.38-.77-1.74-1.32-3.6-1.61-5.55-3.93,4.93-9.98,8.09-16.78,8.09-6.23,0-11.84-2.66-15.76-6.9.78,2.22,1.2,4.6,1.2,7.08,0,11.85-9.61,21.45-21.45,21.45-1.86,0-3.67-.24-5.39-.68-.69,8.91-6.82,16.29-15.07,18.83.61,1.98.93,4.09.93,6.27,0,7.27-3.63,13.7-9.17,17.58,1.39,2.85,2.18,6.05,2.18,9.43,0,6.32-2.74,12-7.09,15.93,2.83,3.64,4.53,8.21,4.53,13.18,0,3.46-.81,6.72-2.27,9.61h0Z"/>
      <path id="path47" class="st1" d="M412.31,174.44c-5.37-2.96-9.01-8.67-9.01-15.23,0-7.04,4.18-13.1,10.2-15.83-6.01-2.74-10.2-8.8-10.2-15.83,0-9.41,7.48-17.07,16.82-17.38.34-2.69,1.3-5.2,2.73-7.36-2.17-1.43-4.12-3.17-5.78-5.16-3.93,4.95-10,8.13-16.82,8.13-4.18,0-8.08-1.2-11.38-3.27.03.48.05.97.05,1.46,0,9.51-6.19,17.57-14.76,20.38,1.18,2.66,1.84,5.61,1.84,8.71,0,10.1-6.98,18.57-16.38,20.85.95,2.28,1.48,4.77,1.48,7.4,0,8.33-5.32,15.42-12.74,18.07,2.58.57,4.99,1.7,7.06,3.29,3.08,2.36,5.42,5.72,6.48,9.74,1.15,4.37.6,8.79-1.25,12.55,10.35,3.96,21.65,5.48,32.42,4.09,8.02-1.03,15.73-3.7,22.5-8.2-4.57-3.29-7.55-8.65-7.55-14.72,0-4.45,1.61-8.53,4.28-11.69h0Z"/>
      <path id="path49" class="st1" d="M454.61,110.17c9.33.3,16.81,7.97,16.81,17.37,0,7.04-4.18,13.1-10.2,15.83,6.01,2.74,10.2,8.8,10.2,15.83,0,6.56-3.64,12.28-9,15.23,2.67,3.16,4.28,7.24,4.28,11.69,0,6.06-2.98,11.43-7.55,14.72,6.77,4.5,14.49,7.17,22.5,8.2,10.77,1.39,22.06-.13,32.42-4.09-1.85-3.76-2.4-8.18-1.25-12.55,1.06-4.03,3.41-7.38,6.48-9.74,2.07-1.59,4.48-2.71,7.06-3.29-7.42-2.65-12.74-9.74-12.74-18.07,0-2.62.53-5.12,1.48-7.4-9.4-2.28-16.38-10.75-16.38-20.85,0-3.1.66-6.05,1.84-8.71-8.57-2.81-14.76-10.88-14.76-20.38,0-.49.02-.98.05-1.46-3.3,2.07-7.2,3.27-11.38,3.27-6.81,0-12.88-3.18-16.81-8.13-1.66,1.99-3.61,3.73-5.78,5.15,1.43,2.16,2.39,4.67,2.73,7.36h0Z"/>
      <path id="path51" class="st1" d="M612.61,227c-2.09-1.28-4.56-1.99-6.97-2.04-3.17-.07-6.42.96-8.92,3.28-.5.46-.91.9-1.23,1.3-.16.2-.31.41-.44.62-.53.72-.94,1.41-1.26,2.06-5.42-.8-10.51-2.51-15.22-4.99-4.92-2.59-9.41-6-13.41-10.1,2.84-2.33,4.99-5.54,5.99-9.35,1.06-4.03.67-8.1-.84-11.67-1.47-3.46-4.02-6.45-7.37-8.44-.3-4.6-2.23-8.43-5.07-11.27-2.34-2.34-5.27-3.98-8.38-4.8-.14-.04-.28-.07-.43-.11,1.85-2.95,2.93-6.44,2.93-10.19,0-8.39-5.39-15.52-12.89-18.12,1.62-3.01,2.53-6.46,2.53-10.12,0-9.51-6.19-17.57-14.76-20.38.77-1.74,1.32-3.6,1.61-5.55,3.93,4.93,9.98,8.09,16.78,8.09,6.23,0,11.84-2.66,15.76-6.9-.78,2.22-1.2,4.6-1.2,7.08,0,11.85,9.61,21.45,21.45,21.45,1.86,0,3.67-.24,5.39-.68.69,8.91,6.82,16.29,15.07,18.83-.61,1.98-.93,4.09-.93,6.27,0,7.27,3.63,13.7,9.17,17.58-1.39,2.85-2.18,6.05-2.18,9.43,0,6.32,2.74,12,7.09,15.93-2.84,3.64-4.53,8.21-4.53,13.18,0,3.46.82,6.72,2.27,9.61h0Z"/>
      <path id="path53" class="st4" d="M437.36,118.26c3.25,0,5.89-2.65,5.89-5.89s-2.65-5.89-5.89-5.89-5.89,2.65-5.89,5.89,2.65,5.89,5.89,5.89Z"/>
      <path id="path55" class="st4" d="M437.36,145.61c3.25,0,5.89-2.65,5.89-5.89s-2.65-5.89-5.89-5.89-5.89,2.65-5.89,5.89,2.65,5.89,5.89,5.89Z"/>
      <path id="path57" class="st4" d="M420.69,151.05c4.51,0,8.16,3.65,8.16,8.16,0,.09,0,.17,0,.25-3.31,1.77-6.01,4.53-7.69,7.89-.16,0-.31.02-.47.02-4.51,0-8.16-3.65-8.16-8.16s3.65-8.16,8.16-8.16h0Z"/>
      <path id="path59" class="st4" d="M420.69,119.38c.26,0,.52.01.78.04,1.16,2.61,2.95,4.88,5.17,6.63-3.04,2.39-5.27,5.77-6.19,9.65-4.4-.13-7.92-3.73-7.92-8.16s3.65-8.16,8.16-8.16h0Z"/>
      <path id="path61" class="st4" d="M400.25,96.78c6.86,0,12.46-5.6,12.46-12.46s-5.6-12.46-12.46-12.46-12.46,5.6-12.46,12.46,5.6,12.46,12.46,12.46h0Z"/>
      <path id="path63" class="st4" d="M242.93,229.85c6.86,0,12.46-5.6,12.46-12.46s-5.6-12.46-12.46-12.46-12.46,5.6-12.46,12.46,5.6,12.46,12.46,12.46h0Z"/>
      <path id="path65" class="st4" d="M245.5,200.75c6.86,0,12.46-5.6,12.46-12.46s-5.6-12.46-12.46-12.46-12.46,5.6-12.46,12.46,5.6,12.46,12.46,12.46Z"/>
      <path id="path67" class="st4" d="M252.48,173.74c6.86,0,12.46-5.6,12.46-12.46s-5.6-12.46-12.46-12.46-12.46,5.6-12.46,12.46c0,6.86,5.6,12.46,12.46,12.46Z"/>
      <path id="path69" class="st4" d="M266.68,146.96c6.86,0,12.46-5.6,12.46-12.46s-5.6-12.46-12.46-12.46-12.46,5.6-12.46,12.46,5.6,12.46,12.46,12.46Z"/>
      <path id="path71" class="st4" d="M293.46,127.87c6.86,0,12.46-5.6,12.46-12.46s-5.6-12.46-12.46-12.46-12.46,5.6-12.46,12.46,5.6,12.46,12.46,12.46Z"/>
      <path id="path73" class="st4" d="M329.47,106.23c6.86,0,12.46-5.6,12.46-12.46s-5.6-12.46-12.46-12.46-12.46,5.6-12.46,12.46,5.6,12.46,12.46,12.46h0Z"/>
      <path id="path75" class="st4" d="M367.47,116.43c6.86,0,12.46-5.6,12.46-12.46s-5.6-12.46-12.46-12.46-12.46,5.6-12.46,12.46,5.6,12.46,12.46,12.46Z"/>
      <path id="path77" class="st4" d="M354.55,145.52c6.86,0,12.46-5.6,12.46-12.46s-5.6-12.46-12.46-12.46-12.46,5.6-12.46,12.46c0,6.86,5.6,12.46,12.46,12.46Z"/>
      <path id="path79" class="st4" d="M341.93,171.49c5.61,0,10.19-4.57,10.19-10.19s-4.58-10.19-10.19-10.19-10.19,4.58-10.19,10.19,4.58,10.19,10.19,10.19Z"/>
      <path id="path81" class="st4" d="M631.79,229.85c6.86,0,12.46-5.6,12.46-12.46s-5.6-12.46-12.46-12.46-12.46,5.6-12.46,12.46c0,6.86,5.6,12.46,12.46,12.46Z"/>
      <path id="path83" class="st4" d="M629.23,200.75c6.86,0,12.46-5.6,12.46-12.46s-5.6-12.46-12.46-12.46-12.46,5.6-12.46,12.46,5.6,12.46,12.46,12.46Z"/>
      <path id="path85" class="st4" d="M622.24,173.74c6.86,0,12.46-5.6,12.46-12.46s-5.6-12.46-12.46-12.46-12.46,5.6-12.46,12.46c0,6.86,5.6,12.46,12.46,12.46Z"/>
      <path id="path87" class="st4" d="M608.04,146.96c6.86,0,12.46-5.6,12.46-12.46s-5.6-12.46-12.46-12.46-12.46,5.6-12.46,12.46,5.6,12.46,12.46,12.46Z"/>
      <path id="path89" class="st4" d="M581.26,127.87c6.86,0,12.46-5.6,12.46-12.46s-5.6-12.46-12.46-12.46-12.46,5.6-12.46,12.46,5.6,12.46,12.46,12.46Z"/>
      <path id="path91" class="st4" d="M545.25,106.23c6.86,0,12.46-5.6,12.46-12.46s-5.6-12.46-12.46-12.46-12.46,5.6-12.46,12.46,5.6,12.46,12.46,12.46h0Z"/>
      <path id="path93" class="st4" d="M474.47,96.78c6.86,0,12.46-5.6,12.46-12.46s-5.6-12.46-12.46-12.46-12.46,5.6-12.46,12.46,5.6,12.46,12.46,12.46h0Z"/>
      <path id="path95" class="st4" d="M507.25,116.43c6.86,0,12.46-5.6,12.46-12.46s-5.6-12.46-12.46-12.46-12.46,5.6-12.46,12.46,5.6,12.46,12.46,12.46Z"/>
      <path id="path97" class="st4" d="M520.17,145.52c6.86,0,12.46-5.6,12.46-12.46s-5.6-12.46-12.46-12.46-12.46,5.6-12.46,12.46,5.6,12.46,12.46,12.46Z"/>
      <path id="path99" class="st4" d="M532.8,171.49c5.61,0,10.19-4.57,10.19-10.19s-4.58-10.19-10.19-10.19-10.19,4.58-10.19,10.19,4.58,10.19,10.19,10.19Z"/>
      <path id="path101" class="st4" d="M454.04,151.05c-4.51,0-8.16,3.65-8.16,8.16,0,.09,0,.17,0,.25,3.31,1.77,6.01,4.53,7.69,7.89.15,0,.31.02.46.02,4.51,0,8.16-3.65,8.16-8.16s-3.65-8.16-8.16-8.16Z"/>
      <path id="path103" class="st4" d="M454.04,119.38c-.26,0-.52.01-.78.04-1.16,2.61-2.95,4.88-5.17,6.63,3.04,2.39,5.27,5.77,6.19,9.65,4.4-.13,7.92-3.73,7.92-8.16,0-4.51-3.65-8.16-8.16-8.16h0Z"/>
      <path id="path105" class="st4" d="M361.89,235.36c-23.69,4.87-46.56,12.09-68.3,21.59-12.75,5.56-5.14,24.55,4.78,20.06,21.11-9.56,43.47-16.76,66.72-21.59,46.93-9.74,97.62-9.74,144.55,0,23.25,4.83,45.61,12.04,66.72,21.59,9.91,4.49,17.53-14.5,4.78-20.06-21.74-9.49-44.61-16.72-68.3-21.59-49.1-10.09-101.84-10.09-150.94,0h0Z"/>
      <polygon id="polygon107" points="437.36 263.29 460.55 272.55 437.36 281.82 414.17 272.55 437.36 263.29"/>
      <polygon id="polygon109" class="st2" points="458.18 272.55 437.36 264.23 416.54 272.55 437.36 280.88 458.18 272.55"/>
      <path id="path111" d="M479.57,272.03c-1.82,3.33-.08,7.06,2.69,9.16,1.81,1.37,3.97,2.04,6.23,2.54l26.99,5.96c2.76.61,5.68.87,8.51-.42,4.59-2.1,5.7-7,2.42-10.85-1.96-2.3-4.66-3.39-7.51-3.94l-27.32-6.05c-4.15-.92-9.69-.66-12.01,3.59h0Z"/>
      <path id="path113" class="st1" d="M491.51,269.35l27.25,6c2.58.57,5.1,1.43,6.98,3.64,2.9,3.4,1.94,7.63-2.12,9.48-2.55,1.17-5.37,1-7.94.43l-27.03-5.99c-1.99-.42-3.97-1.06-5.62-2.25-2.5-1.79-4.3-5.05-2.75-8.09,2.09-4.07,7.43-4.07,11.23-3.23h0Z"/>
      <path id="path115" class="st2" d="M302.79,912.71c-5.73-5.31-11.68-10.87-17.82-16.58-6.35-5.91-12.94-12.03-19.74-18.38.62-.17,1.26-.31,1.88-.49,13.4,11.2,23.7,18.61,31.59,23.14,7.81,4.48,13.59,6.29,17.5,5.9,7.97-.79,2.83-9.78-5.11-17.92-4.87-4.96-9.68-8.9-14.61-11.54-3.38-1.76-8.83-4.29-15.24-6.53-3.75-1.42-7.46-2.81-11.16-4.21-5.37-2.1-10.27-4.21-14.78-6.41-4.51-2.19-8.72-4.52-12.76-7.1-7.58-4.67-16.11-11.55-25.46-20.27-10.73-10.01-21.27-21.53-28.49-31.98-7.77-11.23-11.82-21.31-7.94-26.51,2.01-2.72,6.68-3.36,10.93-3.44,4.36-.1,8.28.47,8.58.1,1.45-1.71-1.6-5.86-7.42-12.93.67-.93,1.37-1.83,2.05-2.76,10.69,11.33,20.92,22.17,30.69,32.48,9.3,9.86,18.26,19.32,26.79,28.35-.78.5-1.55.99-2.33,1.47-12.88-11.55-26.28-21.87-37.37-28.55-11.23-6.78-19.65-9.55-22.53-6.15-3.76,4.44,4.63,17.39,16.96,29.26,7.65,7.33,13.6,12.12,18.1,14.53,4.49,2.41,12.61,5.74,23.47,9.65,4.74,1.69,9.55,3.4,14.39,5.15,5.88,1.84,11.93,4.62,17.74,8.29,11.25,6.65,21.4,15.04,30.96,25.23,8.34,8.91,14.85,18.18,16.92,25.18,1.94,6.5.04,11.01-7.81,11.63-3.31.25-8.02-.68-13.47-2.38-.77-.23-1.52-.45-2.26-.68-1.14-.32-2.25-.66-2.7-.6-1.6.15-.37,1.77,2.48,4.87-.67.06-1.35.12-2.02.17h0Z"/>
      <path id="path117" class="st3" d="M346.55,649.5c8.38-6.27,16.68-12.86,25.16-19.65,26.93-21.58,56.05-40.54,87.09-55.67,1.81-.88,3.63-1.75,5.46-2.6-32.8-31.18-64.33-66.92-80.14-109.65-4.58-12.38-6.62-22.83-5.01-35.05-28.75,5.04-67.64,14.49-93.48,34.23-29.04,22.18-28.69,54.84-16.49,87.89,15.58,42.21,45.03,71.72,77.4,100.5h0Z"/>
      <path id="path119" class="st3" d="M176.64,539.03c-4.01,18.39-6.14,37.48-6.14,57.07,0,39.29,8.5,76.59,23.75,110.18,10.19.07,20.61-.74,31.24-2.46,21.45-3.48,41.56-9.67,60.58-17.97,18.43-8.04,34.58-17.83,50.07-28.77-32.53-29.36-59.45-58.24-76.68-101.14-9.59-23.87-14.55-49.31-7.44-70.53-29.36,12.84-53.74,30.92-75.38,53.62h0Z"/>
      <path id="path121" class="st3" d="M449.5,329.53c-4.02-.18-8.07-.29-12.14-.29-119.12,0-220.03,78.1-254.33,185.87,23.53-21.38,50.49-38.75,80.77-49.45,27.77-32.8,77.22-45.07,118.13-51.86,3.03-9.17,8.56-20.29,15.68-30.33,8.99-12.67,18.79-24.55,30.01-35.45,6.75-6.55,14-12.73,21.88-18.5h0Z"/>
      <path id="path123" class="st3" d="M570.91,365.03c-10.47-6.07-21.4-11.44-32.72-16.06-16.51,6.17-30.82,15.37-43.69,26.46-11.79,10.16-22.46,21.96-32.53,34.51,17.71,11.04,34.86,22.95,51.59,35.51l8.91-12.49c-6.31-5.73-12.35-9.92-18.73-14-2.87-2.26-3.73-7.36-1.46-10.23,2.26-2.87,7.36-3.54,10.22-1.28,5.71,6.29,11.73,10.58,17.85,14.46l11.82-16.58c-4.29-3.69-8.96-6.72-13.8-9.43-2.79-1.93-3.5-5.76-1.57-8.55,1.93-2.79,5.76-3.5,8.55-1.57,4.1,3.94,8.55,7.39,13.35,10.39l9.22-12.93c-2.6-2.22-5.37-3.92-8.37-5-2.81-1.9-3.54-5.72-1.64-8.53,1.9-2.81,5.72-3.54,8.53-1.64,2.32,2.61,4.95,4.66,7.7,6.45l6.77-9.49h0Z"/>
      <path id="path125" class="st3" d="M612,394.33c-9.52-8.25-19.64-15.83-30.27-22.68l-7.75,10.87c2.69,2.53,5.71,4.63,8.82,6.63,2.46,2.34,2.56,6.24.22,8.69-2.34,2.46-6.23,2.56-8.69.22-1.88-2.75-4.06-5.03-6.48-6.93l-9.1,12.76c3.62,3.2,7.39,6.27,11.54,9.01,2.56,2.25,2.8,6.15.55,8.7-2.25,2.56-6.15,2.8-8.7.55-3.1-3.9-6.43-6.77-9.84-9.23l-12.12,17c5.46,5.14,11.3,9.67,17.71,14.35,2.74,2.42,2.8,8.29.38,11.03-2.42,2.74-7.54,2.06-10.28-.36-4.86-5.55-9.77-10.08-15.5-14.24l-8.86,12.42c15.32,11.85,30.39,24.28,45.31,37.13,11.24-12.32,20.62-24.85,27.77-39.21,7.9-15.85,13.15-34.01,15.3-56.7h0Z"/>
      <path id="path127" class="st3" d="M656,443.09c-9.63-13.73-20.52-26.51-32.49-38.17-2.77,20.14-8.02,36.87-15.44,51.76-9.68,19.43-23.41,35.48-38.23,51.08-19.94-17.32-40.18-34.26-61.25-50.21-21.05-15.93-42.81-30.57-65.35-44.28,13.15-16.9,26.69-33.38,42.99-47.42,10.54-9.08,22-17.01,34.74-23.24-16.44-5.42-33.58-9.29-51.25-11.42-12.54,7.71-23.48,16.4-33.27,25.9-10.63,10.32-19.95,21.63-28.52,33.71-8.91,12.56-13.97,23.81-15.72,34.63-1.73,10.62-.27,21.06,3.83,32.13,15.72,42.49,48.1,77.82,80.82,108.47,33.08-13.73,67.95-21.67,103.92-22.24,14.81-12.53,28.85-26.58,41.57-43.05,12.73-16.48,24.13-35.4,33.66-57.67h0Z"/>
      <path id="path129" class="st3" d="M704.23,596.11c0-51.55-14.63-99.68-39.96-140.48-9.26,20.09-20.04,37.49-31.91,52.87-11.84,15.34-24.78,28.66-38.41,40.64,29.19,36.11,65.15,66.18,104.99,89.91l1.69,1.01c2.37-14.3,3.6-28.98,3.6-43.95h0Z"/>
      <path id="path131" class="st2" d="M568.1,314.12l-17.62-21.79,26.99-3.34,12.1,20.37-21.47,4.76h0ZM306.63,314.12l17.62-21.79-26.99-3.34-12.1,20.37,21.47,4.76h0Z"/>
      <path id="path133" class="st4" d="M427.18,172.42c-.8,3.12-1.48,3.16-4.53,3.95-4.53,1.17-7.89,5.29-7.89,10.18,0,7.31,9.6,12.73,16.33,10.62-20.93,23.24-57.17,23.92-83.63,9.91,5.39-1.62,8.57-7.25,7.12-12.74-1.25-4.74-5.54-7.87-10.22-7.84-3.14.02-3.82.15-5.38-2.66-5.22-9.34-19.75-5.51-19.69,5.19.02,3.21-.62,3.43-3.37,4.97-4.09,2.28-6.28,7.12-5.03,11.86,1.34,5.09,6.2,8.33,11.28,7.78-1.67,2.45-3.48,4.73-5.39,6.84-9.4,11.67-21.86,19.16-37.08,19.52-7.63.8-3.22-1.78-6.39-5.75-1.99-2.49-6.29-2.16-8.38.09-3.76,4.07-6.81,4.99-13.72,3.31-6.68-1.62-9.17,8.63-2.48,10.25,27.99,6.8,56.95,4.07,75.85-20.35,4.1-4.54,7.84-9.76,10.84-15.6,29.95,18.63,74.84,19.68,101.93-5.93h0c27.09,25.6,71.98,24.55,101.93,5.93,3,5.84,6.74,11.06,10.84,15.6,18.89,24.43,47.86,27.15,75.85,20.35,6.69-1.62,4.21-11.86-2.48-10.25-6.9,1.68-9.96.76-13.72-3.31-2.08-2.25-6.39-2.58-8.38-.09-3.17,3.96,1.24,6.54-6.39,5.75-15.21-.36-27.68-7.85-37.08-19.52-1.91-2.11-3.72-4.39-5.39-6.84,5.08.55,9.93-2.69,11.28-7.78,1.24-4.74-.94-9.57-5.03-11.86-2.75-1.53-3.39-1.75-3.37-4.97.06-10.7-14.48-14.53-19.69-5.19-1.57,2.81-2.24,2.68-5.38,2.66-4.68-.03-8.97,3.1-10.22,7.84-1.45,5.49,1.73,11.12,7.12,12.74-26.46,14.01-62.7,13.33-83.63-9.91,6.73,2.11,16.33-3.31,16.33-10.62,0-4.9-3.35-9.02-7.89-10.18-3.04-.78-3.73-.83-4.53-3.95-2.66-10.33-17.72-10.33-20.37,0h0Z"/>
      <path id="path135" d="M437.06,190.46c3.11,0,5.65-2.54,5.65-5.65s-2.54-5.65-5.65-5.65-5.65,2.54-5.65,5.65c0,3.11,2.54,5.65,5.65,5.65Z"/>
      <circle id="circle137" cx="332.31" cy="198.42" r="5.65"/>
      <circle id="circle139" cx="542.41" cy="198.42" r="5.65"/>
    </g>
  </g>
</svg>