<?xml version="1.0" encoding="UTF-8"?>
<svg id="Calque_1" data-name="Calque 1" xmlns="http://www.w3.org/2000/svg" viewBox="0 0 1000 1000">
  <defs>
    <style>
      .cls-1 {
        fill: #ff7300;
      }

      .cls-2 {
        fill: #f2f2f2;
      }

      .cls-3 {
        fill: #1d1e1d;
      }
    </style>
  </defs>
  <g>
    <path class="cls-3" d="M495.84,415.76c-41.63-62.38-97.67-101.13-146.23-101.13-8.77,0-17.16,1.31-24.96,3.88-13.83,4.56-26.52,13.41-37.74,26.3l-3.88,4.46-3.76-4.56c-4.39-5.33-28.26-31.89-67.54-31.89-.41,0-.82,0-1.23,0-40.31.57-63.87,28.62-68.18,34.24l-13.54,17.64,4.69-21.74c10.18-47.17,29.07-90.98,56.16-130.19,47.35-68.55,108.28-106.05,151.04-125.43l8.09-3.67-1.06,8.82c-.81,6.79-1.22,13.72-1.21,20.61.01,8.22.63,16.07,1.19,19.87,3.04,20.46,22,42.46,45.07,52.3,5.68,2.42,12.75,5.44,20.63,5.44,2.88,0,5.7-.42,8.38-1.25,12.25-3.79,18.78-15.17,22.69-21.98,4.36-7.59,7.53-16.61,10.02-38.27,1.77-15.45,2.16-28.6,2.45-38.21.46-15.38.65-21.74,6.68-22.76.33-.05.66-.08.99-.08,4.93,0,6.87,4.73,10.09,12.56,4.15,10.1,10.42,25.36,21.7,28.17,1.17.29,2.43.46,3.63.48,1.2-.02,2.46-.18,3.63-.48,11.28-2.81,17.55-18.07,21.7-28.17,3.22-7.83,5.16-12.56,10.08-12.56.33,0,.66.03.99.08,6.03,1.02,6.22,7.38,6.68,22.76.29,9.61.68,22.77,2.45,38.21,2.49,21.66,5.66,30.68,9.98,38.2,3.95,6.88,10.48,18.26,22.73,22.05,2.68.83,5.5,1.25,8.38,1.25,7.89,0,14.95-3.02,20.63-5.44,23.07-9.84,42.03-31.84,45.07-52.3.56-3.8,1.18-11.65,1.19-19.87.01-6.89-.4-13.82-1.21-20.61l-1.06-8.82,8.09,3.67c42.77,19.39,103.69,56.88,151.04,125.43,27.09,39.21,45.98,83.01,56.16,130.19l4.69,21.74-13.54-17.64c-4.31-5.62-27.87-33.67-68.18-34.24-.41,0-.82,0-1.23,0-39.28,0-63.16,26.56-67.54,31.89l-3.76,4.56-3.88-4.46c-11.21-12.89-23.91-21.74-37.74-26.3-7.8-2.57-16.2-3.88-24.96-3.88-48.57,0-104.6,38.75-146.23,101.13l-4.16,6.23-4.16-6.23Z"/>
    <path class="cls-2" d="M535.42,73.16c.05,0,.1,0,.16.01,3.73.63,1.15,23.09,4.99,56.61,2.63,22.87,6.11,32.27,10.61,40.12,4.14,7.22,11.41,19.95,25.59,24.34,3.38,1.05,6.68,1.47,9.86,1.47,8.9,0,16.79-3.36,22.6-5.84,25.18-10.75,44.83-34.49,48.05-56.17.61-4.13,1.23-12.19,1.25-20.6.01-8.81-.64-16.12-1.25-21.22,31.89,14.46,97.88,49.73,148.99,123.72,34.13,49.41,48.69,97.35,55.39,128.4-3.03-3.94-28.2-35.58-72.08-36.2-.44,0-.87,0-1.3,0-42.75,0-68.22,29.85-71.4,33.71-14.62-16.8-29.14-24.21-39.94-27.77-8.42-2.78-17.31-4.13-26.53-4.13-48.88,0-106.81,38.05-150.39,103.36-43.59-65.31-101.51-103.36-150.39-103.36-9.22,0-18.11,1.35-26.53,4.13-10.8,3.56-25.33,10.97-39.94,27.77-3.18-3.86-28.65-33.71-71.4-33.71-.43,0-.87,0-1.3,0-43.88.62-69.05,32.25-72.08,36.2,6.7-31.05,21.26-78.99,55.39-128.4,51.11-73.99,117.1-109.27,148.99-123.72-.61,5.1-1.26,12.4-1.25,21.22.01,8.41.63,16.46,1.25,20.6,3.22,21.67,22.87,45.42,48.05,56.17,5.8,2.48,13.69,5.84,22.6,5.84,3.17,0,6.47-.43,9.86-1.47,14.18-4.38,21.45-17.12,25.59-24.34,4.5-7.84,7.98-17.25,10.61-40.12,3.85-33.52,1.26-55.98,4.99-56.61.05,0,.1-.01.16-.01,4.7,0,9.93,35.44,30.58,40.58,2.15.54,3.95.61,4.84.62.88-.01,2.68-.09,4.84-.62,20.65-5.14,25.88-40.58,30.58-40.58M535.41,63.16c-4.7,0-8.51,2.69-11.31,8-1.11,2.1-2.17,4.68-3.39,7.65-3.54,8.61-9.46,23.02-18.28,25.22-.78.19-1.61.31-2.42.33-.81-.02-1.64-.13-2.42-.33-8.82-2.2-14.75-16.61-18.29-25.22-1.22-2.98-2.28-5.55-3.39-7.65-2.8-5.31-6.61-8-11.31-8h0c-.61,0-1.22.05-1.82.15-1.94.33-6.7,1.75-8.91,7.83-.57,1.58-.97,3.45-1.23,5.88-.38,3.46-.52,8.04-.69,13.83-.28,9.52-.67,22.55-2.42,37.79-2.65,23.06-6.07,30.57-9.35,36.28l-.04.07c-3.77,6.56-9.46,16.48-19.83,19.69-2.23.69-4.49,1.03-6.9,1.03-6.86,0-13.41-2.79-18.67-5.04-21.23-9.06-39.33-29.89-42.09-48.44-.54-3.63-1.12-11.16-1.14-19.14-.01-6.69.38-13.42,1.18-20.01l2.12-17.63-16.17,7.33c-43.34,19.65-105.09,57.65-153.09,127.15-27.46,39.75-46.62,84.16-56.93,131.98l-9.38,43.49,27.09-35.29c4.07-5.3,26.28-31.75,64.29-32.29.39,0,.78,0,1.16,0,37.04,0,59.55,25.05,63.69,30.07l7.51,9.12,7.75-8.91c10.61-12.2,22.57-20.56,35.53-24.84,7.29-2.41,15.16-3.63,23.4-3.63,22.28,0,47.03,8.8,71.56,25.46,25.71,17.45,50.09,42.85,70.51,73.45l8.32,12.46,8.32-12.46c20.42-30.6,44.8-56,70.51-73.45,24.54-16.66,49.29-25.46,71.57-25.46,8.23,0,16.1,1.22,23.4,3.63,12.96,4.28,24.92,12.64,35.53,24.84l7.75,8.91,7.51-9.12c4.14-5.02,26.65-30.07,63.69-30.07.39,0,.77,0,1.16,0,38.01.54,60.22,26.99,64.29,32.29l27.09,35.29-9.38-43.49c-10.32-47.82-29.47-92.22-56.93-131.98-48-69.49-109.75-107.5-153.09-127.15l-16.17-7.33,2.12,17.63c.79,6.59,1.19,13.32,1.18,20.01-.01,7.98-.6,15.52-1.14,19.14-2.76,18.55-20.85,39.38-42.09,48.44-5.26,2.25-11.81,5.04-18.67,5.04-2.41,0-4.67-.34-6.9-1.03-10.37-3.21-16.06-13.13-19.83-19.69l-.04-.07c-3.28-5.71-6.7-13.22-9.35-36.28-1.75-15.24-2.14-28.27-2.42-37.79-.17-5.79-.31-10.37-.69-13.83-.27-2.43-.66-4.3-1.23-5.88-2.21-6.08-6.97-7.5-8.92-7.83-.61-.1-1.22-.15-1.82-.15h0Z"/>
  </g>
  <g>
    <path class="cls-1" d="M277.21,741.76c-11.72-11.02-18.44-26.57-18.44-42.66v-297.59h113.37v429.55l-94.94-89.3Z"/>
    <path class="cls-2" d="M367.14,406.51v412.98c-28.84-27.13-57.67-54.25-86.51-81.38-10.76-10.12-16.86-24.24-16.86-39.01v-292.59h103.37M377.14,396.51h-123.37v302.59c0,17.46,7.29,34.33,20.01,46.3l34.22,32.19,52.29,49.19,16.85,15.85v-446.11h0Z"/>
  </g>
  <g>
    <path class="cls-1" d="M457.67,896.8c-13.1-11.44-20.61-27.45-20.61-43.92v-433.43l62.52,69.48,62.52-69.48v433.43c0,16.48-7.51,32.49-20.61,43.92l-41.81,36.68-42-36.68Z"/>
    <path class="cls-2" d="M557.09,432.48v420.4c0,15.13-6.82,29.61-18.9,40.16-12.84,11.27-25.69,22.54-38.53,33.81l-38.71-33.81c-12.08-10.55-18.9-25.03-18.9-40.16v-420.4c19.17,21.31,38.35,42.62,57.52,63.93,19.17-21.31,38.35-42.62,57.52-63.93M567.09,406.41l-17.43,19.38-28.49,31.66-21.59,24c-10.32-11.47-20.64-22.95-30.97-34.42l-19.11-21.24-17.43-19.38v446.46c0,17.92,8.13,35.3,22.32,47.69l38.71,33.81,6.59,5.76,6.58-5.77,24.64-21.62,13.89-12.19c14.17-12.37,22.3-29.75,22.3-47.68v-446.46h0Z"/>
  </g>
  <g>
    <path class="cls-1" d="M627.19,401.51h113.37v297.59c0,16.09-6.72,31.63-18.44,42.66l-94.94,89.3v-429.55Z"/>
    <path class="cls-2" d="M735.56,406.51v292.59c0,14.77-6.1,28.89-16.86,39.01-28.84,27.13-57.67,54.25-86.51,81.38v-412.98h103.37M745.56,396.51h-123.37v446.11l16.85-15.85,50.48-47.48,36.03-33.89c12.72-11.96,20.01-28.84,20.01-46.3v-302.59h0Z"/>
  </g>
</svg>